<?xml version="1.0" encoding="UTF-8"?>
<svg id="a" data-name="Layer 1" xmlns="http://www.w3.org/2000/svg" xmlns:xlink="http://www.w3.org/1999/xlink" viewBox="0 0 160 120">
  <defs>
    <style>
      .d, .e, .f {
        fill: none;
      }

      .g {
        fill: #0c0;
      }

      .h {
        clip-path: url(#c);
      }

      .i {
        clip-path: url(#b);
      }

      .e {
        stroke-width: 10px;
      }

      .e, .f {
        stroke: #0c0;
        stroke-miterlimit: 10;
      }

      .f {
        stroke-width: 11px;
      }
    </style>
    <clipPath id="b">
      <rect class="d" x="19.5" y="18.5" width="121" height="55"/>
    </clipPath>
    <clipPath id="c">
      <rect class="d" x="19.5" y="18.5" width="121" height="55"/>
    </clipPath>
  </defs>
  <line class="e" x1="5" y1="120" x2="5"/>
  <line class="e" x1="155" x2="155" y2="120"/>
  <line class="e" y1="5" x2="160" y2="5"/>
  <line class="e" y1="115" x2="160" y2="115"/>
  <g class="i">
    <g class="h">
      <line class="f" x1="25" y1="73.5" x2="25" y2="18.5"/>
      <line class="f" x1="47" y1="73.5" x2="47" y2="18.5"/>
      <line class="f" x1="69" y1="73.5" x2="69" y2="18.5"/>
      <line class="f" x1="140.5" y1="68" x2="85.5" y2="68"/>
      <line class="f" x1="140.5" y1="46" x2="85.5" y2="46"/>
      <line class="f" x1="140.5" y1="24" x2="85.5" y2="24"/>
    </g>
  </g>
  <g>
    <path class="g" d="M36.7725,81.8477l-4.3291,18.2012h-7.4629l-4.3545-18.2012h5.1475l2.7041,14.7559h.4814l2.6914-14.7559h5.1221Z"/>
    <path class="g" d="M51.582,85.3848v11.1279h4.2119v3.5361h-13.2734v-3.5361h4.1465v-11.1279h-4.1465v-3.5371h13.2734v3.5371h-4.2119Z"/>
    <path class="g" d="M69.7998,93.666h-2.8604v6.3828h-4.9141v-18.2012h7.9561c3.2764,0,6.9951.7803,6.9951,5.7207,0,2.8213-1.1055,4.3555-2.6006,5.1875l3.0811,7.293h-5.2129l-2.4443-6.3828ZM66.9395,90.1299h3.3809c1.1436,0,1.6768-.832,1.6768-2.4961,0-1.3525-.4287-2.249-1.6768-2.249h-3.3809v4.7451Z"/>
    <path class="g" d="M87.8535,85.3848v3.9512h6.9551v3.5371h-6.9551v3.6396h8.4111v3.5361h-13.1953v-18.2012h13.1953v3.5371h-8.4111Z"/>
    <path class="g" d="M117.4521,81.8477v18.2012h-5.2393l-5.3564-10.582v10.582h-4.3945v-18.2012h5.2529l5.3301,11.0381v-11.0381h4.4072Z"/>
    <path class="g" d="M122.4229,97.0068l3.5625-2.6396c.6621,1.1572,2.249,2.3662,4.2246,2.3662,1.8076,0,3.0684-.4805,3.0684-1.4814,0-1.1963-1.5605-1.9502-4.2383-2.7432-2.8467-.8584-6.0059-2.3662-6.0059-5.7598,0-3.7178,4.0684-5.0566,7.6699-5.0566,3.2627,0,6.0195,1.5732,7.0459,3.1455l-3.5488,2.5352c-.6367-.9492-1.9629-2.0801-3.5625-2.0801-1.4951,0-2.6904.377-2.6904,1.4043,0,.9883,1.4814,1.6377,3.9648,2.418,2.873.9756,6.3184,2.457,6.3184,5.915,0,4.0049-4.3945,5.3047-8.0469,5.3047-3.5234,0-6.6309-1.3916-7.7617-3.3281Z"/>
  </g>
</svg>